<?xml version="1.0"?>
<!-- Generated by SVGo and Plotinum VG -->
<svg width="300pt" height="300pt" viewBox="0 0 300 300"
	xmlns="http://www.w3.org/2000/svg"
	xmlns:xlink="http://www.w3.org/1999/xlink">
<g transform="scale(1, -1) translate(0, -300)">
<path d="M0,0L300,0L300,300L0,300Z" style="fill:#FFFFFF" />
<text x="26.73" y="-3.252" transform="scale(1, -1)"
	style="font-family:Times;font-weight:normal;font-style:normal;font-size:10px">-5</text>
<text x="160.62" y="-3.252" transform="scale(1, -1)"
	style="font-family:Times;font-weight:normal;font-style:normal;font-size:10px">0</text>
<text x="292.86" y="-3.252" transform="scale(1, -1)"
	style="font-family:Times;font-weight:normal;font-style:normal;font-size:10px">5</text>
<path d="M30.895,11.074L30.895,19.074" style="fill:none;stroke:#000000;stroke-width:0.5" />
<path d="M163.12,11.074L163.12,19.074" style="fill:none;stroke:#000000;stroke-width:0.5" />
<path d="M295.36,11.074L295.36,19.074" style="fill:none;stroke:#000000;stroke-width:0.5" />
<path d="M57.341,15.074L57.341,19.074" style="fill:none;stroke:#000000;stroke-width:0.5" />
<path d="M83.787,15.074L83.787,19.074" style="fill:none;stroke:#000000;stroke-width:0.5" />
<path d="M110.23,15.074L110.23,19.074" style="fill:none;stroke:#000000;stroke-width:0.5" />
<path d="M136.68,15.074L136.68,19.074" style="fill:none;stroke:#000000;stroke-width:0.5" />
<path d="M189.57,15.074L189.57,19.074" style="fill:none;stroke:#000000;stroke-width:0.5" />
<path d="M216.02,15.074L216.02,19.074" style="fill:none;stroke:#000000;stroke-width:0.5" />
<path d="M242.46,15.074L242.46,19.074" style="fill:none;stroke:#000000;stroke-width:0.5" />
<path d="M268.91,15.074L268.91,19.074" style="fill:none;stroke:#000000;stroke-width:0.5" />
<path d="M28.25,19.074L298,19.074" style="fill:none;stroke:#000000;stroke-width:0.5" />
<text x="5" y="-78.184" transform="scale(1, -1)"
	style="font-family:Times;font-weight:normal;font-style:normal;font-size:10px">0</text>
<text x="0" y="-186.47" transform="scale(1, -1)"
	style="font-family:Times;font-weight:normal;font-style:normal;font-size:10px">10</text>
<text x="0" y="-294.77" transform="scale(1, -1)"
	style="font-family:Times;font-weight:normal;font-style:normal;font-size:10px">20</text>
<path d="M12.5,80.47L20.5,80.47" style="fill:none;stroke:#000000;stroke-width:0.5" />
<path d="M12.5,188.76L20.5,188.76" style="fill:none;stroke:#000000;stroke-width:0.5" />
<path d="M12.5,297.05L20.5,297.05" style="fill:none;stroke:#000000;stroke-width:0.5" />
<path d="M16.5,37.153L20.5,37.153" style="fill:none;stroke:#000000;stroke-width:0.5" />
<path d="M16.5,58.811L20.5,58.811" style="fill:none;stroke:#000000;stroke-width:0.5" />
<path d="M16.5,102.13L20.5,102.13" style="fill:none;stroke:#000000;stroke-width:0.5" />
<path d="M16.5,123.79L20.5,123.79" style="fill:none;stroke:#000000;stroke-width:0.5" />
<path d="M16.5,145.44L20.5,145.44" style="fill:none;stroke:#000000;stroke-width:0.5" />
<path d="M16.5,167.1L20.5,167.1" style="fill:none;stroke:#000000;stroke-width:0.5" />
<path d="M16.5,210.42L20.5,210.42" style="fill:none;stroke:#000000;stroke-width:0.5" />
<path d="M16.5,232.08L20.5,232.08" style="fill:none;stroke:#000000;stroke-width:0.5" />
<path d="M16.5,253.73L20.5,253.73" style="fill:none;stroke:#000000;stroke-width:0.5" />
<path d="M16.5,275.39L20.5,275.39" style="fill:none;stroke:#000000;stroke-width:0.5" />
<path d="M20.5,26.324L20.5,297.05" style="fill:none;stroke:#000000;stroke-width:0.5" />
<path d="M218.02,91.299A2,2 0 1 1 214.02,91.299A2,2 0 1 1 218.02,91.299Z" style="fill:none;stroke:#FF0080;stroke-width:0.5" />
<path d="M270.91,112.96A2,2 0 1 1 266.91,112.96A2,2 0 1 1 270.91,112.96Z" style="fill:none;stroke:#FF0080;stroke-width:0.5" />
<path d="M244.46,103.21A2,2 0 1 1 240.46,103.21A2,2 0 1 1 244.46,103.21Z" style="fill:none;stroke:#FF0080;stroke-width:0.5" />
<path d="M276.2,123.79A2,2 0 1 1 272.2,123.79A2,2 0 1 1 276.2,123.79Z" style="fill:none;stroke:#FF0080;stroke-width:0.5" />
<path d="M300,134.61A2,2 0 1 1 296,134.61A2,2 0 1 1 300,134.61Z" style="fill:none;stroke:#FF0080;stroke-width:0.5" />
<path d="M30.25,26.324A2,2 0 1 1 26.25,26.324A2,2 0 1 1 30.25,26.324Z" style="fill:none;stroke:#FF0080;stroke-width:0.5" />
<path d="M165.12,188.76A2,2 0 1 1 161.12,188.76A2,2 0 1 1 165.12,188.76Z" style="fill:none;stroke:#FF0080;stroke-width:0.5" />
<path d="M165.12,199.59A2,2 0 1 1 161.12,199.59A2,2 0 1 1 165.12,199.59Z" style="fill:none;stroke:#FF0080;stroke-width:0.5" />
<path d="M165.12,297.05A2,2 0 1 1 161.12,297.05A2,2 0 1 1 165.12,297.05Z" style="fill:none;stroke:#FF0080;stroke-width:0.5" />
<path d="M28.25,130.16L33.755,130.53L39.26,130.91L44.765,131.28L50.27,131.66L55.776,132.03L61.281,132.4L66.786,132.78L72.291,133.15L77.796,133.52L83.301,133.9L88.806,134.27L94.311,134.65L99.816,135.02L105.32,135.39L110.83,135.77L116.33,136.14L121.84,136.52L127.34,136.89L132.85,137.26L138.35,137.64L143.86,138.01L149.36,138.39L154.87,138.76L160.37,139.13L165.88,139.51L171.38,139.88L176.89,140.25L182.39,140.63L187.9,141L193.4,141.38L198.91,141.75L204.41,142.12L209.92,142.5L215.42,142.87L220.93,143.25L226.43,143.62L231.94,143.99L237.44,144.37L242.95,144.74L248.45,145.12L253.96,145.49L259.46,145.86L264.97,146.24L270.47,146.61L275.98,146.99L281.48,147.36L286.99,147.73L292.49,148.11L298,148.48" style="fill:none;stroke:#0000FF" />
</g>
</svg>
